<?xml version="1.0" standalone="no"?><svg xmlns="http://www.w3.org/2000/svg" viewBox="0 0 1440 320"><path fill="#273036" fill-opacity="0.5" d="M0,96L17.1,106.7C34.3,117,69,139,103,138.7C137.1,139,171,117,206,106.7C240,96,274,96,309,106.7C342.9,117,377,139,411,160C445.7,181,480,203,514,218.7C548.6,235,583,245,617,229.3C651.4,213,686,171,720,176C754.3,181,789,235,823,234.7C857.1,235,891,181,926,165.3C960,149,994,171,1029,154.7C1062.9,139,1097,85,1131,74.7C1165.7,64,1200,96,1234,128C1268.6,160,1303,192,1337,197.3C1371.4,203,1406,181,1423,170.7L1440,160L1440,320L1422.9,320C1405.7,320,1371,320,1337,320C1302.9,320,1269,320,1234,320C1200,320,1166,320,1131,320C1097.1,320,1063,320,1029,320C994.3,320,960,320,926,320C891.4,320,857,320,823,320C788.6,320,754,320,720,320C685.7,320,651,320,617,320C582.9,320,549,320,514,320C480,320,446,320,411,320C377.1,320,343,320,309,320C274.3,320,240,320,206,320C171.4,320,137,320,103,320C68.6,320,34,320,17,320L0,320Z"></path></svg>